<svg xmlns="http://www.w3.org/2000/svg" xmlns:xlink="http://www.w3.org/1999/xlink" width="375" zoomAndPan="magnify" viewBox="0 0 281.25 48.75" height="65" preserveAspectRatio="xMidYMid meet" version="1.0"><defs><g/><clipPath id="id1"><path d="M 234 19 L 259 19 L 259 37.484375 L 234 37.484375 Z M 234 19 " clip-rule="nonzero"/></clipPath><clipPath id="id2"><path d="M 248 16 L 274.992188 16 L 274.992188 29 L 248 29 Z M 248 16 " clip-rule="nonzero"/></clipPath><clipPath id="id3"><path d="M 257 19 L 274.992188 19 L 274.992188 29 L 257 29 Z M 257 19 " clip-rule="nonzero"/></clipPath><clipPath id="id4"><path d="M 5.195312 6.972656 L 33 6.972656 L 33 35 L 5.195312 35 Z M 5.195312 6.972656 " clip-rule="nonzero"/></clipPath><clipPath id="id5"><path d="M 28.082031 29.863281 L 41.757812 29.863281 L 41.757812 43.535156 L 28.082031 43.535156 Z M 28.082031 29.863281 " clip-rule="nonzero"/></clipPath></defs><g clip-path="url(#id1)"><path fill="#ffffff" d="M 258.195312 28.105469 C 256.835938 33.5 251.84375 37.421875 246.023438 37.242188 C 239.734375 37.050781 234.710938 32.140625 234.265625 26.03125 C 234.234375 25.617188 234.226562 25.195312 234.238281 24.773438 C 234.300781 22.847656 234.808594 21.039062 235.664062 19.449219 C 235.453125 20.28125 235.328125 21.144531 235.304688 22.035156 C 235.289062 22.457031 235.296875 22.878906 235.328125 23.292969 C 235.773438 29.402344 240.796875 34.3125 247.085938 34.507812 C 251.867188 34.652344 256.085938 32.035156 258.195312 28.105469 " fill-opacity="1" fill-rule="nonzero"/><path fill="#e5d8ff" d="M 246.40625 37.25 C 246.277344 37.25 246.152344 37.246094 246.023438 37.242188 C 239.734375 37.050781 234.710938 32.140625 234.265625 26.03125 C 234.246094 25.742188 234.234375 25.453125 234.234375 25.160156 C 234.234375 25.03125 234.234375 24.902344 234.238281 24.773438 C 234.300781 22.847656 234.808594 21.039062 235.664062 19.449219 C 235.453125 20.28125 235.328125 21.144531 235.304688 22.035156 C 235.296875 22.164062 235.296875 22.292969 235.296875 22.421875 C 235.296875 22.714844 235.308594 23.003906 235.328125 23.292969 C 235.773438 29.402344 240.796875 34.3125 247.085938 34.507812 C 247.214844 34.511719 247.34375 34.511719 247.46875 34.511719 C 252.089844 34.511719 256.140625 31.929688 258.195312 28.105469 C 256.863281 33.382812 252.058594 37.25 246.40625 37.25 " fill-opacity="1" fill-rule="nonzero"/></g><path fill="#ffffff" d="M 258.558594 25.519531 C 258.53125 26.410156 258.40625 27.273438 258.195312 28.105469 C 256.085938 32.035156 251.867188 34.652344 247.085938 34.507812 C 240.796875 34.3125 235.773438 29.402344 235.328125 23.292969 C 235.296875 22.878906 235.289062 22.457031 235.304688 22.035156 C 235.328125 21.144531 235.453125 20.28125 235.664062 19.449219 C 237.773438 15.519531 241.992188 12.902344 246.773438 13.046875 C 249.558594 13.132812 252.097656 14.144531 254.097656 15.777344 C 256.921875 18.078125 258.679688 21.609375 258.558594 25.519531 " fill-opacity="1" fill-rule="nonzero"/><path fill="#8c52ff" d="M 239.691406 31.535156 L 244.457031 31.535156 C 245.078125 31.535156 245.585938 31.160156 245.585938 30.703125 C 245.585938 30.242188 245.078125 29.871094 244.457031 29.871094 L 232.523438 29.871094 C 231.898438 29.871094 231.394531 30.242188 231.394531 30.703125 C 231.394531 31.160156 231.898438 31.535156 232.523438 31.535156 L 237.054688 31.535156 C 237.265625 31.535156 237.433594 31.65625 237.433594 31.8125 C 237.433594 31.964844 237.265625 32.085938 237.054688 32.085938 L 225.949219 32.085938 C 225.429688 32.085938 225.007812 32.398438 225.007812 32.78125 C 225.007812 33.164062 225.429688 33.472656 225.949219 33.472656 L 242.320312 33.472656 C 242.839844 33.472656 243.261719 33.164062 243.261719 32.78125 C 243.261719 32.398438 242.839844 32.085938 242.320312 32.085938 L 239.691406 32.085938 C 239.484375 32.085938 239.316406 31.964844 239.316406 31.8125 C 239.316406 31.65625 239.484375 31.535156 239.691406 31.535156 " fill-opacity="1" fill-rule="nonzero"/><g clip-path="url(#id2)"><path fill="#ffde59" d="M 275.003906 28.152344 L 274.191406 27.128906 C 273.25 25.933594 271.464844 25.445312 270.039062 25.988281 C 269.441406 26.21875 268.925781 26.589844 268.378906 26.984375 C 267.976562 27.277344 267.5625 27.578125 267.109375 27.8125 C 266.390625 28.191406 265.578125 28.367188 264.765625 28.367188 C 263.339844 28.367188 261.902344 27.816406 260.914062 26.804688 C 260.824219 26.933594 260.71875 27.058594 260.605469 27.183594 C 260.082031 27.738281 259.429688 28.070312 258.769531 28.128906 C 258.121094 28.183594 257.484375 27.949219 257.070312 27.523438 C 256.75 28.289062 255.960938 28.855469 255.121094 28.878906 L 255.058594 28.878906 C 254.332031 28.878906 253.621094 28.484375 253.21875 27.863281 C 252.550781 28.417969 251.746094 28.726562 250.945312 28.726562 L 250.9375 28.726562 C 249.6875 28.722656 248.539062 27.886719 248.253906 26.777344 C 248.125 26.277344 248.191406 25.785156 248.433594 25.425781 C 248.605469 25.171875 248.867188 24.996094 249.144531 24.933594 C 248.726562 24.566406 248.425781 24.050781 248.289062 23.460938 C 248.105469 22.667969 248.25 21.871094 248.6875 21.273438 C 249.125 20.675781 249.839844 20.289062 250.652344 20.214844 C 251.15625 20.171875 251.640625 20.25 252.066406 20.433594 C 251.777344 19.703125 251.9375 18.800781 252.367188 18.179688 C 252.8125 17.539062 253.554688 17.101562 254.410156 16.984375 C 255.261719 16.863281 256.097656 17.082031 256.703125 17.582031 C 257.246094 18.03125 257.605469 18.710938 257.695312 19.46875 C 258.402344 18.925781 259.542969 18.941406 260.09375 19.390625 C 260.605469 19.804688 260.828125 20.515625 260.695312 21.152344 C 261.023438 21.039062 261.40625 21.089844 261.699219 21.242188 C 262.167969 21.484375 262.457031 21.941406 262.660156 22.3125 C 262.710938 22.410156 262.765625 22.511719 262.820312 22.617188 C 262.976562 22.921875 263.125 23.214844 263.332031 23.460938 C 263.898438 24.140625 264.9375 24.476562 266.109375 24.363281 C 266.8125 24.292969 267.519531 24.082031 268.195312 23.882812 C 268.519531 23.789062 268.847656 23.6875 269.179688 23.605469 C 269.773438 23.457031 270.554688 23.304688 271.308594 23.480469 C 272.238281 23.703125 272.902344 24.359375 273.300781 24.871094 C 273.792969 25.511719 274.132812 26.25 274.457031 26.964844 L 275.003906 28.152344 " fill-opacity="1" fill-rule="nonzero"/></g><path fill="#8c52ff" d="M 257.722656 19.871094 C 257.722656 20.667969 257.4375 21.410156 256.917969 21.929688 C 256.273438 22.578125 255.117188 22.898438 254.375 22.277344 C 253.773438 21.773438 253.53125 20.726562 253.835938 19.988281 C 254.046875 19.492188 254.492188 19.171875 255.128906 19.0625 C 255.433594 19.011719 255.785156 19.125 256.015625 19.351562 C 256.210938 19.539062 256.292969 19.773438 256.257812 20.015625 L 255.949219 19.96875 C 255.972656 19.78125 255.867188 19.640625 255.792969 19.574219 C 255.636719 19.417969 255.386719 19.335938 255.179688 19.371094 C 254.65625 19.460938 254.292969 19.714844 254.128906 20.109375 C 253.871094 20.71875 254.082031 21.621094 254.578125 22.035156 C 255.160156 22.527344 256.144531 22.265625 256.695312 21.710938 C 257.183594 21.214844 257.441406 20.496094 257.40625 19.726562 C 257.367188 18.957031 257.035156 18.265625 256.5 17.820312 C 255.964844 17.378906 255.21875 17.1875 254.453125 17.292969 C 253.683594 17.398438 253.019531 17.789062 252.625 18.359375 C 252.132812 19.066406 252.0625 20.210938 252.703125 20.832031 C 252.730469 20.855469 252.753906 20.878906 252.777344 20.898438 L 252.566406 21.132812 C 252.539062 21.109375 252.515625 21.085938 252.492188 21.066406 C 252.023438 20.660156 251.367188 20.464844 250.679688 20.527344 C 249.957031 20.59375 249.324219 20.933594 248.941406 21.457031 C 248.5625 21.980469 248.4375 22.683594 248.597656 23.390625 C 248.761719 24.09375 249.179688 24.675781 249.753906 24.980469 L 249.621094 25.261719 C 249.3125 25.136719 248.90625 25.285156 248.695312 25.601562 C 248.503906 25.886719 248.453125 26.289062 248.558594 26.703125 C 248.808594 27.675781 249.828125 28.410156 250.9375 28.414062 L 250.945312 28.414062 C 251.953125 28.414062 252.972656 27.867188 253.671875 26.949219 C 253.980469 26.539062 254.351562 25.894531 254.351562 25.140625 C 254.351562 24.464844 254.011719 23.835938 253.488281 23.542969 C 252.933594 23.230469 252.171875 23.363281 251.828125 23.835938 C 251.648438 24.074219 251.601562 24.417969 251.699219 24.734375 C 251.789062 25.015625 251.976562 25.226562 252.214844 25.316406 L 252.109375 25.609375 C 251.773438 25.488281 251.515625 25.203125 251.398438 24.828125 C 251.269531 24.410156 251.335938 23.972656 251.570312 23.648438 C 252.011719 23.042969 252.945312 22.875 253.644531 23.269531 C 254.261719 23.617188 254.664062 24.351562 254.664062 25.140625 C 254.667969 25.980469 254.261719 26.691406 253.921875 27.136719 C 253.777344 27.324219 253.625 27.496094 253.460938 27.65625 C 253.382812 27.726562 253.300781 27.800781 253.21875 27.863281 C 252.550781 28.417969 251.746094 28.726562 250.945312 28.726562 L 250.9375 28.726562 C 249.6875 28.722656 248.539062 27.886719 248.253906 26.777344 C 248.125 26.277344 248.191406 25.785156 248.433594 25.425781 C 248.605469 25.171875 248.867188 24.996094 249.144531 24.933594 C 248.726562 24.566406 248.425781 24.050781 248.289062 23.460938 C 248.105469 22.667969 248.25 21.871094 248.6875 21.273438 C 249.125 20.675781 249.839844 20.289062 250.652344 20.214844 C 251.15625 20.171875 251.640625 20.25 252.066406 20.433594 C 251.777344 19.703125 251.9375 18.800781 252.367188 18.179688 C 252.8125 17.539062 253.554688 17.101562 254.410156 16.984375 C 255.261719 16.863281 256.097656 17.082031 256.703125 17.582031 C 257.246094 18.03125 257.605469 18.710938 257.695312 19.46875 C 257.707031 19.546875 257.714844 19.625 257.71875 19.710938 C 257.722656 19.761719 257.722656 19.816406 257.722656 19.871094 " fill-opacity="1" fill-rule="nonzero"/><g clip-path="url(#id3)"><path fill="#8c52ff" d="M 275.003906 28.152344 L 274.191406 27.128906 C 273.25 25.933594 271.464844 25.445312 270.039062 25.988281 C 269.441406 26.21875 268.925781 26.589844 268.378906 26.984375 C 267.976562 27.277344 267.5625 27.578125 267.109375 27.8125 C 266.390625 28.191406 265.578125 28.367188 264.765625 28.367188 C 263.339844 28.367188 261.902344 27.816406 260.914062 26.804688 C 260.839844 26.726562 260.769531 26.648438 260.699219 26.570312 L 260.941406 26.367188 C 260.984375 26.421875 261.03125 26.472656 261.082031 26.523438 C 262.535156 28.070312 265.078125 28.523438 266.964844 27.535156 C 267.394531 27.3125 267.800781 27.015625 268.195312 26.734375 C 268.734375 26.34375 269.289062 25.941406 269.925781 25.699219 C 271.214844 25.203125 272.722656 25.464844 273.796875 26.300781 C 273.582031 25.867188 273.34375 25.441406 273.050781 25.0625 C 272.683594 24.589844 272.074219 23.984375 271.234375 23.785156 C 270.550781 23.625 269.816406 23.765625 269.257812 23.910156 C 268.933594 23.988281 268.605469 24.089844 268.289062 24.183594 C 267.59375 24.386719 266.878906 24.601562 266.136719 24.675781 C 264.867188 24.800781 263.726562 24.421875 263.089844 23.660156 C 262.859375 23.386719 262.695312 23.066406 262.539062 22.757812 C 262.484375 22.65625 262.4375 22.558594 262.382812 22.460938 C 262.203125 22.128906 261.945312 21.722656 261.550781 21.515625 C 261.222656 21.347656 260.738281 21.351562 260.496094 21.65625 L 260.234375 21.480469 C 260.578125 20.890625 260.429688 20.0625 259.898438 19.632812 C 259.402344 19.234375 258.257812 19.28125 257.722656 19.871094 L 257.6875 19.910156 L 257.445312 19.707031 C 257.519531 19.617188 257.605469 19.539062 257.695312 19.46875 C 258.402344 18.925781 259.542969 18.941406 260.09375 19.390625 C 260.605469 19.804688 260.828125 20.515625 260.695312 21.152344 C 261.023438 21.039062 261.40625 21.089844 261.699219 21.242188 C 262.167969 21.484375 262.457031 21.941406 262.660156 22.3125 C 262.710938 22.410156 262.765625 22.511719 262.820312 22.617188 C 262.976562 22.921875 263.125 23.214844 263.332031 23.460938 C 263.898438 24.140625 264.9375 24.476562 266.109375 24.363281 C 266.8125 24.292969 267.519531 24.082031 268.195312 23.882812 C 268.519531 23.789062 268.847656 23.6875 269.179688 23.605469 C 269.773438 23.457031 270.554688 23.304688 271.308594 23.480469 C 272.238281 23.703125 272.902344 24.359375 273.300781 24.871094 C 273.792969 25.511719 274.132812 26.25 274.457031 26.964844 L 275.003906 28.152344 " fill-opacity="1" fill-rule="nonzero"/></g><path fill="#8c52ff" d="M 261.082031 26.523438 C 261.066406 26.558594 261.046875 26.59375 261.023438 26.628906 C 260.992188 26.683594 260.953125 26.746094 260.914062 26.804688 C 260.824219 26.933594 260.71875 27.058594 260.605469 27.183594 C 260.082031 27.738281 259.429688 28.070312 258.769531 28.128906 C 258.121094 28.183594 257.484375 27.949219 257.070312 27.523438 C 256.75 28.289062 255.960938 28.855469 255.121094 28.878906 L 255.058594 28.878906 C 254.332031 28.878906 253.621094 28.484375 253.21875 27.863281 C 253.183594 27.808594 253.148438 27.753906 253.121094 27.695312 L 253.398438 27.550781 C 253.417969 27.585938 253.4375 27.621094 253.460938 27.65625 C 253.804688 28.214844 254.46875 28.578125 255.113281 28.570312 C 255.914062 28.542969 256.664062 27.9375 256.859375 27.164062 L 256.941406 26.824219 L 257.140625 27.117188 C 257.46875 27.59375 258.097656 27.867188 258.742188 27.8125 C 259.328125 27.765625 259.90625 27.464844 260.378906 26.96875 C 260.523438 26.8125 260.652344 26.644531 260.753906 26.46875 C 261.105469 25.886719 261.214844 25.238281 261.058594 24.679688 C 260.835938 23.871094 259.960938 23.308594 259.222656 23.496094 C 258.675781 23.632812 258.242188 24.183594 258.234375 24.75 C 258.226562 25.320312 258.644531 25.871094 259.199219 26.023438 L 259.117188 26.328125 C 258.425781 26.136719 257.914062 25.457031 257.917969 24.746094 C 257.925781 24.035156 258.453125 23.363281 259.148438 23.191406 C 260.054688 22.960938 261.089844 23.617188 261.363281 24.597656 C 261.53125 25.203125 261.429688 25.898438 261.082031 26.523438 " fill-opacity="1" fill-rule="nonzero"/><path fill="#ffde59" d="M 242.886719 24.503906 C 242.242188 24.417969 241.644531 23.808594 241.382812 23.339844 C 241.289062 23.171875 241.152344 22.921875 241.070312 22.773438 C 241.046875 22.726562 241.027344 22.6875 241.011719 22.667969 C 240.683594 22.078125 240.265625 21.542969 240.164062 21.691406 L 240.15625 21.699219 L 240.152344 21.714844 L 240.148438 21.71875 L 240.140625 21.734375 L 240.136719 21.738281 L 240.132812 21.757812 C 239.867188 22.46875 240.777344 23.359375 241.167969 23.746094 C 241.183594 23.757812 241.0625 23.707031 240.933594 23.65625 L 240.984375 23.707031 C 240.925781 23.671875 240.871094 23.636719 240.8125 23.601562 C 240.730469 23.5625 240.664062 23.535156 240.664062 23.535156 C 240.128906 23.347656 238.820312 22.714844 238.820312 22.714844 C 238.820312 22.714844 238.710938 22.667969 238.566406 22.613281 L 238.53125 22.601562 C 238.484375 22.582031 238.4375 22.570312 238.386719 22.550781 C 238.046875 22.449219 237.6875 22.40625 238.070312 22.878906 C 238.164062 22.992188 238.269531 23.097656 238.386719 23.191406 C 238.632812 23.386719 238.921875 23.53125 239.222656 23.648438 C 239.367188 23.703125 239.515625 23.75 239.664062 23.792969 C 239.847656 23.84375 240.050781 23.867188 240.246094 23.898438 C 240.449219 23.9375 240.648438 23.988281 240.796875 24.101562 C 240.890625 24.167969 240.964844 24.257812 241.015625 24.382812 C 241.089844 24.765625 240.90625 25.390625 240.707031 25.664062 C 240.582031 25.839844 240.425781 25.984375 240.25 26.109375 L 240.238281 26.113281 C 240.09375 26.222656 239.9375 26.320312 239.78125 26.410156 C 239.457031 26.59375 239.121094 26.757812 238.839844 27 C 238.660156 27.152344 238.507812 27.335938 238.386719 27.539062 C 238.257812 27.757812 238.164062 28 238.117188 28.25 C 238.117188 28.269531 238.109375 28.289062 238.109375 28.308594 C 238.082031 28.46875 238.074219 28.628906 238.082031 28.789062 C 238.089844 28.867188 238.097656 28.941406 238.117188 29.019531 C 238.121094 29.046875 238.128906 29.070312 238.136719 29.097656 C 238.179688 29.261719 238.453125 29.78125 238.488281 29.847656 L 240.710938 29.847656 C 240.71875 29.769531 240.679688 29.667969 240.617188 29.636719 C 240.570312 29.613281 240.222656 29.609375 240.117188 29.617188 C 240.644531 29.347656 241.105469 28.597656 241.148438 28.585938 C 241.265625 28.558594 241.511719 28.980469 241.5625 29.085938 C 241.605469 29.171875 241.664062 29.5625 241.75 29.683594 C 241.796875 29.757812 241.855469 29.820312 241.929688 29.847656 L 242.445312 29.847656 L 242.464844 29.800781 C 242.496094 29.683594 242.351562 29.601562 242.246094 29.535156 C 242.21875 29.519531 242.191406 29.5 242.167969 29.484375 C 241.933594 29.300781 241.804688 28.761719 241.769531 28.460938 C 241.738281 28.203125 241.773438 27.945312 241.824219 27.6875 C 241.785156 27.667969 241.753906 27.652344 241.71875 27.632812 C 241.730469 27.574219 241.738281 27.519531 241.753906 27.460938 C 241.777344 27.324219 241.796875 27.191406 241.816406 27.0625 C 241.84375 27.09375 241.875 27.125 241.90625 27.152344 L 241.914062 27.164062 C 241.976562 26.753906 242.019531 26.375 242.359375 25.984375 C 242.421875 25.910156 242.5 25.832031 242.585938 25.753906 C 242.800781 25.570312 242.980469 25.390625 243.027344 25.113281 C 243.066406 24.878906 243.039062 24.664062 242.886719 24.503906 Z M 240.710938 29.847656 L 238.488281 29.847656 M 242.445312 29.847656 L 241.929688 29.847656 " fill-opacity="1" fill-rule="nonzero"/><path fill="#ffde59" d="M 238.132812 29.09375 C 238.082031 29.101562 238.023438 29.101562 237.972656 29.09375 C 237.824219 29.066406 237.683594 28.992188 237.582031 28.882812 C 237.546875 28.839844 237.515625 28.796875 237.492188 28.746094 C 237.457031 28.695312 237.433594 28.636719 237.425781 28.570312 C 237.398438 28.425781 237.457031 28.265625 237.578125 28.179688 C 237.726562 28.074219 237.96875 28.140625 238.117188 28.25 C 238.113281 28.269531 238.113281 28.289062 238.109375 28.308594 C 238.082031 28.46875 238.074219 28.628906 238.082031 28.789062 C 238.089844 28.867188 238.097656 28.945312 238.113281 29.019531 C 238.121094 29.046875 238.125 29.070312 238.132812 29.09375 " fill-opacity="1" fill-rule="nonzero"/><path fill="#ffde59" d="M 242.832031 28.273438 C 242.800781 28.347656 242.722656 28.402344 242.644531 28.382812 C 242.542969 28.359375 242.503906 28.238281 242.453125 28.144531 C 242.359375 27.972656 242.191406 27.867188 242.019531 27.78125 C 241.957031 27.75 241.886719 27.71875 241.820312 27.6875 C 241.789062 27.671875 241.753906 27.652344 241.71875 27.632812 C 241.730469 27.578125 241.742188 27.519531 241.753906 27.460938 C 241.78125 27.324219 241.796875 27.191406 241.816406 27.0625 C 241.84375 27.09375 241.875 27.125 241.90625 27.152344 L 241.914062 27.164062 C 242.070312 27.304688 242.257812 27.40625 242.429688 27.53125 C 242.605469 27.65625 242.769531 27.820312 242.832031 28.03125 C 242.855469 28.109375 242.863281 28.195312 242.832031 28.273438 " fill-opacity="1" fill-rule="nonzero"/><path fill="#ffde59" d="M 240.242188 26.113281 C 240.097656 26.222656 239.9375 26.320312 239.78125 26.410156 C 239.457031 26.59375 239.121094 26.757812 238.839844 27 C 238.660156 27.152344 238.507812 27.335938 238.386719 27.539062 L 238.386719 27.523438 C 238.507812 27.324219 238.660156 27.144531 238.835938 26.996094 C 239.128906 26.746094 239.476562 26.570312 239.8125 26.382812 C 239.960938 26.300781 240.105469 26.214844 240.242188 26.113281 " fill-opacity="1" fill-rule="nonzero"/><path fill="#ffde59" d="M 240.980469 23.707031 C 240.925781 23.671875 240.867188 23.636719 240.8125 23.601562 C 240.851562 23.617188 240.894531 23.636719 240.9375 23.65625 L 240.980469 23.707031 " fill-opacity="1" fill-rule="nonzero"/><path fill="#ffde59" d="M 241.914062 27.164062 C 241.898438 27.265625 241.886719 27.367188 241.863281 27.472656 C 241.847656 27.542969 241.835938 27.617188 241.820312 27.6875 C 241.789062 27.671875 241.753906 27.652344 241.71875 27.632812 C 241.730469 27.578125 241.742188 27.519531 241.753906 27.460938 C 241.78125 27.324219 241.796875 27.191406 241.816406 27.0625 C 241.84375 27.09375 241.875 27.125 241.90625 27.152344 L 241.914062 27.164062 " fill-opacity="1" fill-rule="nonzero"/><g fill="#e5d8ff" fill-opacity="0.4"><g transform="translate(36.79863, 38.098662)"><g><path d="M 5.769531 -21.707031 C 5.308594 -22.46875 4.828125 -22.851562 4.320312 -22.820312 C 3.808594 -22.789062 3.25 -22.582031 2.644531 -22.199219 C 2.214844 -21.914062 1.769531 -21.5625 1.308594 -21.148438 C 0.84375 -20.734375 0.492188 -20.304688 0.253906 -19.855469 C 0.0625 -19.472656 0 -19.042969 0.0625 -18.535156 C 0.113281 -18.152344 0.207031 -17.769531 0.351562 -17.386719 C 0.492188 -17.003906 0.652344 -16.652344 0.8125 -16.304688 C 1.257812 -15.363281 1.945312 -14.230469 2.867188 -12.910156 C 3.792969 -11.570312 4.8125 -10.246094 5.945312 -8.910156 C 4.890625 -7.539062 3.886719 -6.390625 2.902344 -5.433594 C 2.675781 -5.210938 2.4375 -4.972656 2.199219 -4.75 C 1.945312 -4.527344 1.753906 -4.285156 1.59375 -4.03125 C 1.289062 -3.523438 1.324219 -3.042969 1.707031 -2.566406 C 2.070312 -2.085938 2.566406 -1.65625 3.203125 -1.273438 C 3.839844 -0.890625 4.492188 -0.574219 5.195312 -0.351562 C 5.878906 -0.113281 6.40625 0 6.757812 0 C 7.363281 0 7.9375 -0.191406 8.476562 -0.574219 C 9.019531 -0.957031 9.5 -1.371094 9.914062 -1.785156 C 10.261719 -2.136719 10.691406 -2.628906 11.234375 -3.296875 C 11.679688 -2.882812 12.207031 -2.46875 12.8125 -2.039062 C 13.289062 -1.6875 13.816406 -1.386719 14.421875 -1.097656 C 15.011719 -0.8125 15.617188 -0.71875 16.222656 -0.828125 C 16.558594 -0.875 17.050781 -1.082031 17.6875 -1.433594 C 18.328125 -1.785156 18.917969 -2.214844 19.472656 -2.710938 C 20.015625 -3.1875 20.429688 -3.714844 20.71875 -4.253906 C 21.003906 -4.796875 20.957031 -5.289062 20.589844 -5.738281 C 20.367188 -5.960938 20.128906 -6.152344 19.855469 -6.34375 C 19.570312 -6.519531 19.316406 -6.691406 19.058594 -6.882812 C 17.878906 -7.664062 16.683594 -8.621094 15.457031 -9.753906 C 16.320312 -11.28125 17.082031 -12.765625 17.753906 -14.230469 C 18.421875 -15.699219 18.902344 -16.925781 19.171875 -17.945312 C 19.410156 -18.835938 19.523438 -19.617188 19.523438 -20.285156 C 19.488281 -20.796875 19.347656 -21.210938 19.089844 -21.546875 C 18.773438 -21.929688 18.34375 -22.296875 17.816406 -22.628906 C 17.273438 -22.964844 16.78125 -23.234375 16.335938 -23.425781 C 15.664062 -23.699219 15.074219 -23.808594 14.566406 -23.746094 C 14.054688 -23.679688 13.65625 -23.21875 13.339844 -22.390625 C 12.511719 -20.128906 11.441406 -17.816406 10.152344 -15.441406 C 8.460938 -17.5 7.011719 -19.585938 5.769531 -21.707031 Z M 5.769531 -21.707031 "/></g></g></g><g fill="#e5d8ff" fill-opacity="0.4"><g transform="translate(58.995104, 38.098662)"><g><path d="M 5.992188 -7.570312 C 5.992188 -8.351562 6.199219 -8.890625 6.644531 -9.210938 C 7.074219 -9.53125 7.570312 -9.640625 8.128906 -9.578125 C 8.667969 -9.515625 9.210938 -9.273438 9.753906 -8.875 C 10.277344 -8.476562 10.644531 -7.96875 10.835938 -7.363281 C 10.996094 -6.804688 11.027344 -6.277344 10.917969 -5.785156 C 10.789062 -5.273438 10.453125 -4.890625 9.894531 -4.621094 C 9.003906 -4.175781 8.144531 -4.351562 7.28125 -5.179688 C 6.421875 -6.007812 5.992188 -6.804688 5.992188 -7.570312 Z M 12.429688 -1.722656 C 12.527344 -1.433594 12.636719 -1.164062 12.78125 -0.875 C 12.972656 -0.460938 13.242188 -0.144531 13.625 0.0625 C 13.816406 0.191406 14.167969 0.285156 14.660156 0.367188 C 15.15625 0.445312 15.648438 0.476562 16.160156 0.445312 C 16.667969 0.429688 17.117188 0.335938 17.5 0.175781 C 17.878906 0.015625 18.054688 -0.269531 18.054688 -0.667969 C 18.039062 -0.875 17.992188 -1.082031 17.929688 -1.308594 C 17.847656 -1.53125 17.785156 -1.738281 17.738281 -1.945312 C 17.132812 -3.871094 16.796875 -6.085938 16.703125 -8.605469 C 16.605469 -11.125 16.589844 -14.3125 16.636719 -18.167969 C 16.765625 -20.398438 16.683594 -21.609375 16.398438 -21.816406 C 16.113281 -22.023438 15.714844 -22.152344 15.234375 -22.214844 C 14.882812 -22.246094 14.503906 -22.246094 14.070312 -22.230469 C 13.640625 -22.199219 13.273438 -22.121094 12.972656 -21.992188 C 12.683594 -21.878906 12.460938 -21.671875 12.285156 -21.371094 C 12.191406 -21.195312 12.207031 -19.300781 12.367188 -15.699219 C 11.21875 -15.953125 10.023438 -15.921875 8.78125 -15.585938 C 7.1875 -15.15625 5.753906 -14.390625 4.511719 -13.273438 C 4.320312 -13.082031 4.113281 -12.890625 3.921875 -12.703125 C 3.441406 -12.238281 3.042969 -11.746094 2.691406 -11.21875 C 2.34375 -10.691406 2.023438 -10.152344 1.738281 -9.59375 C 1.164062 -8.445312 0.890625 -7.171875 0.957031 -5.800781 C 0.988281 -4.828125 1.179688 -3.984375 1.53125 -3.28125 C 1.878906 -2.550781 2.390625 -1.945312 3.042969 -1.464844 C 3.695312 -0.988281 4.414062 -0.605469 5.179688 -0.351562 C 6.167969 0 7.21875 0.128906 8.304688 0.03125 C 9.355469 -0.0625 10.34375 -0.398438 11.265625 -0.941406 C 11.679688 -1.164062 12.0625 -1.433594 12.429688 -1.722656 Z M 12.429688 -1.722656 "/></g></g></g><g fill="#e5d8ff" fill-opacity="0.4"><g transform="translate(77.701962, 38.098662)"><g><path d="M 14.453125 -13.195312 C 13.066406 -13.960938 12.285156 -14.40625 12.128906 -14.566406 C 10.121094 -15.855469 9.800781 -16.734375 11.171875 -17.195312 C 11.839844 -17.195312 12.460938 -17.164062 13.035156 -17.101562 L 14.167969 -16.8125 C 14.835938 -16.683594 15.523438 -16.511719 16.238281 -16.320312 C 16.890625 -16.160156 17.402344 -16.222656 17.753906 -16.492188 C 17.769531 -16.492188 17.800781 -16.527344 17.847656 -16.574219 C 18.261719 -16.925781 18.390625 -17.417969 18.230469 -18.054688 C 18.070312 -18.675781 17.847656 -19.171875 17.59375 -19.523438 C 17.546875 -19.585938 17.515625 -19.632812 17.480469 -19.664062 C 17.578125 -19.921875 17.371094 -20.160156 16.859375 -20.382812 C 16.445312 -20.574219 16.078125 -20.75 15.792969 -20.941406 C 15.472656 -21.082031 15.234375 -21.195312 15.074219 -21.257812 C 14.628906 -21.417969 14.136719 -21.59375 13.578125 -21.769531 C 8.972656 -22.230469 5.625 -21.609375 3.539062 -19.90625 C 2.34375 -18.933594 1.578125 -17.800781 1.226562 -16.492188 C 0.875 -15.1875 1.132812 -13.898438 2.007812 -12.605469 C 2.359375 -12.046875 3.777344 -10.933594 6.230469 -9.242188 C 7.9375 -8.0625 8.859375 -7.394531 9.003906 -7.234375 C 9.003906 -7.203125 9.019531 -7.171875 9.035156 -7.140625 C 9.050781 -7.109375 9.066406 -7.089844 9.101562 -7.074219 C 9.371094 -6.566406 9.257812 -6.183594 8.765625 -5.894531 C 8.605469 -5.800781 8.476562 -5.738281 8.414062 -5.707031 C 6.996094 -5.402344 5.480469 -5.640625 3.886719 -6.40625 C 3.171875 -6.757812 2.535156 -7.171875 1.992188 -7.648438 C 1.960938 -7.664062 1.929688 -7.679688 1.894531 -7.695312 C 1.863281 -7.714844 1.847656 -7.746094 1.832031 -7.777344 C 1.609375 -7.96875 1.324219 -8.128906 1.003906 -8.285156 C 0.667969 -8.445312 0.414062 -8.320312 0.253906 -7.90625 C 0.09375 -7.523438 0 -7.058594 -0.03125 -6.484375 C -0.0625 -5.914062 -0.09375 -5.433594 -0.09375 -5.035156 L -0.09375 -4.910156 C -0.078125 -4.589844 0.046875 -4.285156 0.285156 -4.03125 C 0.285156 -4 0.304688 -3.984375 0.320312 -3.96875 C 0.335938 -3.9375 0.351562 -3.921875 0.382812 -3.921875 C 0.382812 -3.886719 0.398438 -3.855469 0.414062 -3.839844 L 0.476562 -3.792969 C 0.910156 -3.316406 1.417969 -2.882812 2.023438 -2.519531 L 5.066406 -1.117188 C 5.480469 -0.972656 6.007812 -0.84375 6.613281 -0.71875 C 6.535156 -0.589844 7.332031 -0.460938 9.019531 -0.367188 L 9.035156 -0.382812 C 9.035156 -0.382812 9.035156 -0.398438 9.050781 -0.414062 C 10.390625 -0.351562 11.699219 -0.445312 12.957031 -0.71875 C 14.199219 -0.972656 15.265625 -1.417969 16.160156 -2.039062 C 17.5 -2.964844 18.4375 -4.113281 18.964844 -5.480469 C 19.472656 -6.835938 19.457031 -8.0625 18.949219 -9.148438 C 18.4375 -10.230469 17.53125 -11.1875 16.222656 -11.984375 C 16.175781 -12 16.128906 -12.03125 16.097656 -12.0625 Z M 14.453125 -13.195312 "/></g></g></g><g fill="#e5d8ff" fill-opacity="0.4"><g transform="translate(97.587958, 38.098662)"><g><path d="M 2.328125 -22.757812 C 1.945312 -22.566406 1.640625 -22.277344 1.417969 -21.878906 C 1.132812 -21.371094 0.890625 -20.683594 0.734375 -19.839844 C 0.542969 -18.882812 0.445312 -17.671875 0.445312 -16.175781 C 0.445312 -14.675781 0.511719 -13.132812 0.667969 -11.539062 C 0.8125 -9.945312 1.019531 -8.398438 1.308594 -6.902344 C 1.59375 -5.402344 1.929688 -4.175781 2.3125 -3.234375 C 2.503906 -2.726562 2.757812 -2.214844 3.074219 -1.707031 C 3.394531 -1.195312 3.824219 -0.828125 4.398438 -0.605469 C 5.164062 -0.285156 6.292969 -0.175781 7.808594 -0.269531 C 9.324219 -0.351562 10.550781 -0.429688 11.507812 -0.492188 C 13.066406 -0.558594 14.582031 -0.703125 16.046875 -0.890625 C 17.515625 -1.082031 18.726562 -1.324219 19.679688 -1.609375 C 20.320312 -1.800781 20.8125 -1.992188 21.179688 -2.183594 C 21.722656 -2.46875 22.105469 -2.804688 22.328125 -3.1875 C 22.710938 -3.839844 22.835938 -4.8125 22.742188 -6.121094 C 22.675781 -6.691406 22.550781 -7.1875 22.328125 -7.617188 C 22.105469 -8.03125 21.738281 -8.238281 21.242188 -8.207031 C 21.003906 -8.175781 20.734375 -8.128906 20.429688 -8.046875 C 20.285156 -8 20.144531 -7.953125 20.015625 -7.90625 C 19.886719 -7.839844 19.761719 -7.808594 19.632812 -7.777344 C 18.390625 -7.394531 17.050781 -7.074219 15.601562 -6.820312 C 14.152344 -6.566406 12.667969 -6.390625 11.171875 -6.277344 C 10.773438 -6.246094 10.421875 -6.214844 10.121094 -6.183594 C 9.816406 -6.152344 9.546875 -6.136719 9.308594 -6.136719 C 8.988281 -7.140625 8.75 -8.160156 8.558594 -9.179688 C 10.007812 -9.289062 11.457031 -9.480469 12.925781 -9.769531 C 14.375 -10.039062 15.28125 -10.421875 15.632812 -10.902344 C 15.921875 -11.28125 16.0625 -12.09375 16.0625 -13.339844 C 16.0625 -14.582031 15.585938 -15.203125 14.597656 -15.234375 C 14.105469 -15.234375 13.210938 -15.1875 11.921875 -15.058594 C 10.613281 -14.933594 9.257812 -14.773438 7.855469 -14.613281 C 7.761719 -15.824219 7.714844 -17.117188 7.746094 -18.453125 C 9.402344 -18.742188 11.027344 -18.917969 12.605469 -18.980469 C 14.167969 -19.042969 15.871094 -18.933594 17.707031 -18.644531 C 17.960938 -18.597656 18.230469 -18.550781 18.519531 -18.503906 C 18.804688 -18.4375 19.074219 -18.421875 19.363281 -18.453125 C 20.351562 -18.519531 20.734375 -19.28125 20.527344 -20.734375 C 20.320312 -22.183594 20.046875 -23.140625 19.699219 -23.585938 C 19.378906 -23.96875 18.949219 -24.238281 18.40625 -24.398438 C 17.863281 -24.558594 17.339844 -24.683594 16.84375 -24.765625 C 14.882812 -25.035156 12.667969 -25.003906 10.214844 -24.652344 C 7.761719 -24.304688 5.65625 -23.839844 3.921875 -23.265625 C 3.648438 -23.171875 3.378906 -23.074219 3.109375 -23.011719 C 2.820312 -22.949219 2.566406 -22.851562 2.328125 -22.757812 Z M 2.328125 -22.757812 "/></g></g></g><g fill="#e5d8ff" fill-opacity="0.4"><g transform="translate(121.61687, 38.098662)"><g><path d="M 1.226562 -14.199219 C 0.382812 -12.527344 0 -10.675781 0.078125 -8.652344 C 0.144531 -7.25 0.414062 -6.023438 0.925781 -4.988281 C 1.433594 -3.90625 2.183594 -3.011719 3.140625 -2.3125 C 4.09375 -1.609375 5.148438 -1.082031 6.261719 -0.703125 C 7.730469 -0.191406 9.242188 0 10.820312 -0.128906 C 12.382812 -0.285156 13.832031 -0.75 15.171875 -1.546875 C 16.511719 -2.328125 17.722656 -3.296875 18.773438 -4.445312 C 19.472656 -5.210938 20.144531 -6.070312 20.796875 -7.042969 C 21.449219 -8.015625 21.945312 -9.019531 22.296875 -10.039062 C 22.835938 -11.730469 23.027344 -13.625 22.867188 -15.730469 C 22.804688 -16.335938 22.691406 -16.941406 22.566406 -17.5625 C 22.4375 -18.167969 22.230469 -18.757812 21.945312 -19.300781 C 21.5 -20.128906 20.828125 -20.875 19.96875 -21.578125 C 19.089844 -22.261719 18.214844 -22.742188 17.324219 -22.996094 C 15.472656 -23.523438 13.546875 -23.523438 11.539062 -22.980469 C 9.195312 -22.34375 7.109375 -21.210938 5.289062 -19.585938 C 5.003906 -19.332031 4.703125 -19.042969 4.414062 -18.757812 C 3.730469 -18.085938 3.125 -17.355469 2.613281 -16.589844 C 2.105469 -15.824219 1.640625 -15.027344 1.226562 -14.199219 Z M 7.457031 -10.804688 C 7.457031 -11.855469 7.746094 -12.605469 8.320312 -13.019531 C 8.890625 -13.433594 9.5625 -13.609375 10.3125 -13.515625 C 11.058594 -13.417969 11.792969 -13.101562 12.511719 -12.558594 C 13.210938 -12.015625 13.707031 -11.347656 13.976562 -10.519531 C 14.199219 -9.785156 14.230469 -9.082031 14.070312 -8.414062 C 13.914062 -7.746094 13.449219 -7.21875 12.683594 -6.835938 C 11.507812 -6.230469 10.328125 -6.484375 9.179688 -7.601562 C 8.03125 -8.703125 7.457031 -9.769531 7.457031 -10.804688 Z M 7.457031 -10.804688 "/></g></g></g><g fill="#e5d8ff" fill-opacity="0.4"><g transform="translate(145.884802, 38.098662)"><g><path d="M 0.445312 -21.019531 C 0.222656 -20.765625 0.128906 -20.382812 0.160156 -19.886719 C 0.191406 -19.394531 0.222656 -19.027344 0.253906 -18.773438 C 0.285156 -17.816406 0.429688 -16.875 0.683594 -15.984375 C 0.8125 -15.457031 0.941406 -14.996094 1.066406 -14.613281 C 1.195312 -14.214844 1.546875 -13.898438 2.085938 -13.65625 C 2.691406 -13.371094 3.378906 -13.210938 4.113281 -13.179688 C 4.84375 -13.148438 5.546875 -13.117188 6.230469 -13.066406 C 6.582031 -13.035156 7.042969 -12.957031 7.617188 -12.859375 C 8.175781 -12.75 8.542969 -12.492188 8.703125 -12.078125 C 8.988281 -11.347656 9.195312 -10.644531 9.355469 -9.992188 C 9.671875 -8.667969 9.914062 -7.332031 10.070312 -5.992188 C 10.230469 -4.636719 10.519531 -3.316406 10.933594 -2.023438 C 11.042969 -1.609375 11.21875 -1.164062 11.441406 -0.667969 C 11.554688 -0.382812 11.777344 -0.191406 12.113281 -0.113281 C 12.429688 -0.03125 12.734375 0 13.019531 0 C 13.6875 0 14.4375 -0.078125 15.265625 -0.238281 C 16.097656 -0.398438 16.78125 -0.667969 17.355469 -1.082031 C 17.738281 -1.371094 17.945312 -1.832031 17.976562 -2.46875 C 18.007812 -3.648438 17.914062 -4.890625 17.722656 -6.214844 C 17.53125 -7.523438 17.371094 -8.78125 17.242188 -9.976562 C 17.179688 -10.550781 17.066406 -11.25 16.925781 -12.09375 C 16.765625 -12.941406 16.875 -13.59375 17.226562 -14.054688 C 17.5625 -14.503906 18.023438 -14.835938 18.628906 -15.089844 C 19.21875 -15.332031 19.761719 -15.554688 20.269531 -15.777344 C 20.636719 -15.9375 21.050781 -16.128906 21.53125 -16.351562 C 21.992188 -16.574219 22.328125 -16.875 22.519531 -17.273438 C 22.804688 -17.914062 22.835938 -18.917969 22.628906 -20.269531 C 22.40625 -21.609375 22.105469 -22.597656 21.6875 -23.203125 C 21.324219 -23.714844 20.765625 -23.9375 20.03125 -23.839844 C 19.378906 -23.746094 18.742188 -23.585938 18.105469 -23.363281 C 17.464844 -23.140625 16.84375 -22.964844 16.207031 -22.835938 C 14.261719 -22.4375 12.320312 -22.054688 10.375 -21.6875 C 8.414062 -21.308594 6.453125 -21.132812 4.476562 -21.132812 C 3.523438 -21.132812 2.613281 -21.179688 1.753906 -21.289062 C 1.117188 -21.371094 0.667969 -21.273438 0.445312 -21.019531 Z M 0.445312 -21.019531 "/></g></g></g><g fill="#e5d8ff" fill-opacity="0.4"><g transform="translate(169.977451, 38.098662)"><g><path d="M 1.308594 -9.273438 C 0.75 -8.160156 0.492188 -6.964844 0.558594 -5.65625 C 0.589844 -4.734375 0.78125 -3.9375 1.132812 -3.25 C 1.464844 -2.535156 1.945312 -1.945312 2.582031 -1.496094 C 3.21875 -1.050781 3.90625 -0.703125 4.667969 -0.445312 C 5.609375 -0.128906 6.613281 0 7.695312 -0.078125 C 8.71875 -0.175781 9.6875 -0.476562 10.582031 -1.003906 C 11.472656 -1.515625 12.269531 -2.152344 12.972656 -2.902344 C 13.433594 -3.394531 13.878906 -3.953125 14.328125 -4.589844 C 14.757812 -5.226562 15.089844 -5.878906 15.316406 -6.550781 C 15.679688 -7.648438 15.808594 -8.890625 15.699219 -10.277344 C 15.601562 -11.203125 15.410156 -11.984375 15.089844 -12.605469 C 14.789062 -13.148438 14.34375 -13.640625 13.769531 -14.085938 C 13.179688 -14.535156 12.589844 -14.851562 12.015625 -15.027344 C 10.773438 -15.363281 9.480469 -15.363281 8.175781 -15.011719 C 6.613281 -14.597656 5.226562 -13.863281 4.015625 -12.796875 C 3.921875 -12.71875 3.730469 -12.542969 3.425781 -12.253906 C 2.660156 -11.523438 1.945312 -10.519531 1.308594 -9.273438 Z M 5.449219 -7.058594 C 5.449219 -8.460938 6.085938 -9.050781 7.363281 -8.828125 C 8.636719 -8.605469 9.433594 -7.953125 9.785156 -6.867188 C 9.929688 -6.390625 9.945312 -5.929688 9.832031 -5.480469 C 9.722656 -5.035156 9.417969 -4.703125 8.925781 -4.460938 C 8.128906 -4.078125 7.363281 -4.238281 6.597656 -4.972656 C 5.832031 -5.6875 5.449219 -6.390625 5.449219 -7.058594 Z M 5.449219 -7.058594 "/></g></g></g><g fill="#e5d8ff" fill-opacity="0.4"><g transform="translate(186.612851, 38.098662)"><g><path d="M 1.308594 -9.273438 C 0.75 -8.160156 0.492188 -6.964844 0.558594 -5.65625 C 0.589844 -4.734375 0.78125 -3.9375 1.132812 -3.25 C 1.464844 -2.535156 1.945312 -1.945312 2.582031 -1.496094 C 3.21875 -1.050781 3.90625 -0.703125 4.667969 -0.445312 C 5.609375 -0.128906 6.613281 0 7.695312 -0.078125 C 8.71875 -0.175781 9.6875 -0.476562 10.582031 -1.003906 C 11.472656 -1.515625 12.269531 -2.152344 12.972656 -2.902344 C 13.433594 -3.394531 13.878906 -3.953125 14.328125 -4.589844 C 14.757812 -5.226562 15.089844 -5.878906 15.316406 -6.550781 C 15.679688 -7.648438 15.808594 -8.890625 15.699219 -10.277344 C 15.601562 -11.203125 15.410156 -11.984375 15.089844 -12.605469 C 14.789062 -13.148438 14.34375 -13.640625 13.769531 -14.085938 C 13.179688 -14.535156 12.589844 -14.851562 12.015625 -15.027344 C 10.773438 -15.363281 9.480469 -15.363281 8.175781 -15.011719 C 6.613281 -14.597656 5.226562 -13.863281 4.015625 -12.796875 C 3.921875 -12.71875 3.730469 -12.542969 3.425781 -12.253906 C 2.660156 -11.523438 1.945312 -10.519531 1.308594 -9.273438 Z M 5.449219 -7.058594 C 5.449219 -8.460938 6.085938 -9.050781 7.363281 -8.828125 C 8.636719 -8.605469 9.433594 -7.953125 9.785156 -6.867188 C 9.929688 -6.390625 9.945312 -5.929688 9.832031 -5.480469 C 9.722656 -5.035156 9.417969 -4.703125 8.925781 -4.460938 C 8.128906 -4.078125 7.363281 -4.238281 6.597656 -4.972656 C 5.832031 -5.6875 5.449219 -6.390625 5.449219 -7.058594 Z M 5.449219 -7.058594 "/></g></g></g><g fill="#e5d8ff" fill-opacity="0.4"><g transform="translate(203.248251, 38.098662)"><g><path d="M 6.742188 -20.382812 C 6.835938 -21.164062 6.742188 -21.6875 6.421875 -21.945312 C 6.105469 -22.199219 5.671875 -22.375 5.132812 -22.4375 C 4.75 -22.46875 4.320312 -22.484375 3.839844 -22.453125 C 3.363281 -22.421875 2.964844 -22.328125 2.613281 -22.167969 C 2.3125 -22.023438 2.054688 -21.753906 1.863281 -21.371094 C 1.609375 -20.910156 1.402344 -20.269531 1.242188 -19.441406 C 1.050781 -18.550781 0.910156 -17.371094 0.828125 -15.9375 C 0.734375 -14.503906 0.703125 -12.988281 0.734375 -11.425781 C 0.75 -9.863281 0.828125 -8.335938 0.957031 -6.867188 C 1.082031 -5.402344 1.257812 -4.191406 1.496094 -3.25 C 1.609375 -2.757812 1.769531 -2.246094 1.992188 -1.738281 C 2.199219 -1.210938 2.519531 -0.8125 2.949219 -0.558594 C 3.171875 -0.398438 3.554688 -0.269531 4.09375 -0.175781 C 4.636719 -0.0625 5.195312 -0.03125 5.753906 -0.0625 C 6.3125 -0.09375 6.804688 -0.207031 7.234375 -0.429688 C 7.648438 -0.636719 7.871094 -0.988281 7.871094 -1.480469 C 7.839844 -1.753906 7.792969 -2.023438 7.714844 -2.3125 C 7.617188 -2.582031 7.554688 -2.851562 7.507812 -3.109375 C 6.835938 -5.5625 6.46875 -8.382812 6.375 -11.585938 C 6.277344 -14.773438 6.390625 -17.707031 6.742188 -20.382812 Z M 6.742188 -20.382812 "/></g></g></g><g fill="#e5d8ff" fill-opacity="0.4"><g transform="translate(211.693426, 38.098662)"><g><path d="M 11.011719 -9.59375 C 10.023438 -10.136719 9.464844 -10.46875 9.355469 -10.582031 C 7.921875 -11.507812 7.695312 -12.128906 8.667969 -12.460938 C 9.148438 -12.460938 9.578125 -12.429688 9.992188 -12.398438 L 10.804688 -12.191406 C 11.28125 -12.09375 11.777344 -11.96875 12.285156 -11.839844 C 12.75 -11.730469 13.117188 -11.777344 13.371094 -11.96875 C 13.371094 -11.96875 13.402344 -11.984375 13.433594 -12.015625 C 13.722656 -12.269531 13.816406 -12.636719 13.707031 -13.082031 C 13.59375 -13.53125 13.433594 -13.878906 13.242188 -14.136719 C 13.210938 -14.167969 13.195312 -14.214844 13.164062 -14.246094 L 12.734375 -14.757812 C 12.429688 -14.882812 12.175781 -15.027344 11.96875 -15.15625 C 11.730469 -15.25 11.554688 -15.332031 11.457031 -15.394531 C 11.140625 -15.507812 10.789062 -15.632812 10.390625 -15.761719 C 7.109375 -16.078125 4.71875 -15.632812 3.21875 -14.40625 C 2.375 -13.707031 1.832031 -12.890625 1.578125 -11.96875 C 1.324219 -11.027344 1.496094 -10.085938 2.136719 -9.164062 C 2.390625 -8.765625 3.394531 -7.953125 5.148438 -6.742188 C 6.359375 -5.894531 7.027344 -5.417969 7.125 -5.308594 L 7.15625 -5.242188 C 7.15625 -5.210938 7.171875 -5.195312 7.1875 -5.195312 C 7.378906 -4.828125 7.316406 -4.542969 6.964844 -4.335938 C 6.835938 -4.269531 6.757812 -4.222656 6.710938 -4.207031 C 5.6875 -3.984375 4.621094 -4.160156 3.472656 -4.703125 C 2.964844 -4.957031 2.503906 -5.257812 2.121094 -5.609375 C 2.105469 -5.609375 2.085938 -5.625 2.070312 -5.640625 C 2.039062 -5.640625 2.023438 -5.65625 2.007812 -5.6875 C 1.847656 -5.816406 1.640625 -5.945312 1.417969 -6.054688 C 1.179688 -6.167969 1.003906 -6.070312 0.890625 -5.785156 C 0.765625 -5.515625 0.703125 -5.179688 0.683594 -4.765625 C 0.652344 -4.351562 0.636719 -4.015625 0.636719 -3.730469 L 0.636719 -3.632812 C 0.652344 -3.394531 0.75 -3.1875 0.910156 -2.996094 C 0.910156 -2.980469 0.925781 -2.964844 0.941406 -2.949219 C 0.941406 -2.933594 0.957031 -2.917969 0.988281 -2.917969 C 0.988281 -2.882812 0.988281 -2.867188 1.003906 -2.867188 C 1.003906 -2.851562 1.019531 -2.835938 1.050781 -2.835938 C 1.355469 -2.484375 1.722656 -2.167969 2.152344 -1.914062 L 4.320312 -0.910156 C 4.605469 -0.796875 4.972656 -0.703125 5.417969 -0.621094 C 5.371094 -0.527344 5.945312 -0.429688 7.140625 -0.367188 L 7.171875 -0.398438 C 8.128906 -0.351562 9.050781 -0.429688 9.945312 -0.621094 C 10.835938 -0.8125 11.585938 -1.117188 12.222656 -1.5625 C 13.179688 -2.230469 13.847656 -3.058594 14.230469 -4.046875 C 14.582031 -5.019531 14.582031 -5.894531 14.214844 -6.675781 C 13.847656 -7.457031 13.195312 -8.144531 12.269531 -8.71875 L 12.175781 -8.78125 Z M 11.011719 -9.59375 "/></g></g></g><g fill="#ffde59" fill-opacity="1"><g transform="translate(35.35604, 36.656071)"><g><path d="M 5.769531 -21.707031 C 5.308594 -22.46875 4.828125 -22.851562 4.320312 -22.820312 C 3.808594 -22.789062 3.25 -22.582031 2.644531 -22.199219 C 2.214844 -21.914062 1.769531 -21.5625 1.308594 -21.148438 C 0.84375 -20.734375 0.492188 -20.304688 0.253906 -19.855469 C 0.0625 -19.472656 0 -19.042969 0.0625 -18.535156 C 0.113281 -18.152344 0.207031 -17.769531 0.351562 -17.386719 C 0.492188 -17.003906 0.652344 -16.652344 0.8125 -16.304688 C 1.257812 -15.363281 1.945312 -14.230469 2.867188 -12.910156 C 3.792969 -11.570312 4.8125 -10.246094 5.945312 -8.910156 C 4.890625 -7.539062 3.886719 -6.390625 2.902344 -5.433594 C 2.675781 -5.210938 2.4375 -4.972656 2.199219 -4.75 C 1.945312 -4.527344 1.753906 -4.285156 1.59375 -4.03125 C 1.289062 -3.523438 1.324219 -3.042969 1.707031 -2.566406 C 2.070312 -2.085938 2.566406 -1.65625 3.203125 -1.273438 C 3.839844 -0.890625 4.492188 -0.574219 5.195312 -0.351562 C 5.878906 -0.113281 6.40625 0 6.757812 0 C 7.363281 0 7.9375 -0.191406 8.476562 -0.574219 C 9.019531 -0.957031 9.5 -1.371094 9.914062 -1.785156 C 10.261719 -2.136719 10.691406 -2.628906 11.234375 -3.296875 C 11.679688 -2.882812 12.207031 -2.46875 12.8125 -2.039062 C 13.289062 -1.6875 13.816406 -1.386719 14.421875 -1.097656 C 15.011719 -0.8125 15.617188 -0.71875 16.222656 -0.828125 C 16.558594 -0.875 17.050781 -1.082031 17.6875 -1.433594 C 18.328125 -1.785156 18.917969 -2.214844 19.472656 -2.710938 C 20.015625 -3.1875 20.429688 -3.714844 20.71875 -4.253906 C 21.003906 -4.796875 20.957031 -5.289062 20.589844 -5.738281 C 20.367188 -5.960938 20.128906 -6.152344 19.855469 -6.34375 C 19.570312 -6.519531 19.316406 -6.691406 19.058594 -6.882812 C 17.878906 -7.664062 16.683594 -8.621094 15.457031 -9.753906 C 16.320312 -11.28125 17.082031 -12.765625 17.753906 -14.230469 C 18.421875 -15.699219 18.902344 -16.925781 19.171875 -17.945312 C 19.410156 -18.835938 19.523438 -19.617188 19.523438 -20.285156 C 19.488281 -20.796875 19.347656 -21.210938 19.089844 -21.546875 C 18.773438 -21.929688 18.34375 -22.296875 17.816406 -22.628906 C 17.273438 -22.964844 16.78125 -23.234375 16.335938 -23.425781 C 15.664062 -23.699219 15.074219 -23.808594 14.566406 -23.746094 C 14.054688 -23.679688 13.65625 -23.21875 13.339844 -22.390625 C 12.511719 -20.128906 11.441406 -17.816406 10.152344 -15.441406 C 8.460938 -17.5 7.011719 -19.585938 5.769531 -21.707031 Z M 5.769531 -21.707031 "/></g></g></g><g fill="#ffde59" fill-opacity="1"><g transform="translate(57.552513, 36.656071)"><g><path d="M 5.992188 -7.570312 C 5.992188 -8.351562 6.199219 -8.890625 6.644531 -9.210938 C 7.074219 -9.53125 7.570312 -9.640625 8.128906 -9.578125 C 8.667969 -9.515625 9.210938 -9.273438 9.753906 -8.875 C 10.277344 -8.476562 10.644531 -7.96875 10.835938 -7.363281 C 10.996094 -6.804688 11.027344 -6.277344 10.917969 -5.785156 C 10.789062 -5.273438 10.453125 -4.890625 9.894531 -4.621094 C 9.003906 -4.175781 8.144531 -4.351562 7.28125 -5.179688 C 6.421875 -6.007812 5.992188 -6.804688 5.992188 -7.570312 Z M 12.429688 -1.722656 C 12.527344 -1.433594 12.636719 -1.164062 12.78125 -0.875 C 12.972656 -0.460938 13.242188 -0.144531 13.625 0.0625 C 13.816406 0.191406 14.167969 0.285156 14.660156 0.367188 C 15.15625 0.445312 15.648438 0.476562 16.160156 0.445312 C 16.667969 0.429688 17.117188 0.335938 17.5 0.175781 C 17.878906 0.015625 18.054688 -0.269531 18.054688 -0.667969 C 18.039062 -0.875 17.992188 -1.082031 17.929688 -1.308594 C 17.847656 -1.53125 17.785156 -1.738281 17.738281 -1.945312 C 17.132812 -3.871094 16.796875 -6.085938 16.703125 -8.605469 C 16.605469 -11.125 16.589844 -14.3125 16.636719 -18.167969 C 16.765625 -20.398438 16.683594 -21.609375 16.398438 -21.816406 C 16.113281 -22.023438 15.714844 -22.152344 15.234375 -22.214844 C 14.882812 -22.246094 14.503906 -22.246094 14.070312 -22.230469 C 13.640625 -22.199219 13.273438 -22.121094 12.972656 -21.992188 C 12.683594 -21.878906 12.460938 -21.671875 12.285156 -21.371094 C 12.191406 -21.195312 12.207031 -19.300781 12.367188 -15.699219 C 11.21875 -15.953125 10.023438 -15.921875 8.78125 -15.585938 C 7.1875 -15.15625 5.753906 -14.390625 4.511719 -13.273438 C 4.320312 -13.082031 4.113281 -12.890625 3.921875 -12.703125 C 3.441406 -12.238281 3.042969 -11.746094 2.691406 -11.21875 C 2.34375 -10.691406 2.023438 -10.152344 1.738281 -9.59375 C 1.164062 -8.445312 0.890625 -7.171875 0.957031 -5.800781 C 0.988281 -4.828125 1.179688 -3.984375 1.53125 -3.28125 C 1.878906 -2.550781 2.390625 -1.945312 3.042969 -1.464844 C 3.695312 -0.988281 4.414062 -0.605469 5.179688 -0.351562 C 6.167969 0 7.21875 0.128906 8.304688 0.03125 C 9.355469 -0.0625 10.34375 -0.398438 11.265625 -0.941406 C 11.679688 -1.164062 12.0625 -1.433594 12.429688 -1.722656 Z M 12.429688 -1.722656 "/></g></g></g><g fill="#ffde59" fill-opacity="1"><g transform="translate(76.259372, 36.656071)"><g><path d="M 14.453125 -13.195312 C 13.066406 -13.960938 12.285156 -14.40625 12.128906 -14.566406 C 10.121094 -15.855469 9.800781 -16.734375 11.171875 -17.195312 C 11.839844 -17.195312 12.460938 -17.164062 13.035156 -17.101562 L 14.167969 -16.8125 C 14.835938 -16.683594 15.523438 -16.511719 16.238281 -16.320312 C 16.890625 -16.160156 17.402344 -16.222656 17.753906 -16.492188 C 17.769531 -16.492188 17.800781 -16.527344 17.847656 -16.574219 C 18.261719 -16.925781 18.390625 -17.417969 18.230469 -18.054688 C 18.070312 -18.675781 17.847656 -19.171875 17.59375 -19.523438 C 17.546875 -19.585938 17.515625 -19.632812 17.480469 -19.664062 C 17.578125 -19.921875 17.371094 -20.160156 16.859375 -20.382812 C 16.445312 -20.574219 16.078125 -20.75 15.792969 -20.941406 C 15.472656 -21.082031 15.234375 -21.195312 15.074219 -21.257812 C 14.628906 -21.417969 14.136719 -21.59375 13.578125 -21.769531 C 8.972656 -22.230469 5.625 -21.609375 3.539062 -19.90625 C 2.34375 -18.933594 1.578125 -17.800781 1.226562 -16.492188 C 0.875 -15.1875 1.132812 -13.898438 2.007812 -12.605469 C 2.359375 -12.046875 3.777344 -10.933594 6.230469 -9.242188 C 7.9375 -8.0625 8.859375 -7.394531 9.003906 -7.234375 C 9.003906 -7.203125 9.019531 -7.171875 9.035156 -7.140625 C 9.050781 -7.109375 9.066406 -7.089844 9.101562 -7.074219 C 9.371094 -6.566406 9.257812 -6.183594 8.765625 -5.894531 C 8.605469 -5.800781 8.476562 -5.738281 8.414062 -5.707031 C 6.996094 -5.402344 5.480469 -5.640625 3.886719 -6.40625 C 3.171875 -6.757812 2.535156 -7.171875 1.992188 -7.648438 C 1.960938 -7.664062 1.929688 -7.679688 1.894531 -7.695312 C 1.863281 -7.714844 1.847656 -7.746094 1.832031 -7.777344 C 1.609375 -7.96875 1.324219 -8.128906 1.003906 -8.285156 C 0.667969 -8.445312 0.414062 -8.320312 0.253906 -7.90625 C 0.09375 -7.523438 0 -7.058594 -0.03125 -6.484375 C -0.0625 -5.914062 -0.09375 -5.433594 -0.09375 -5.035156 L -0.09375 -4.910156 C -0.078125 -4.589844 0.046875 -4.285156 0.285156 -4.03125 C 0.285156 -4 0.304688 -3.984375 0.320312 -3.96875 C 0.335938 -3.9375 0.351562 -3.921875 0.382812 -3.921875 C 0.382812 -3.886719 0.398438 -3.855469 0.414062 -3.839844 L 0.476562 -3.792969 C 0.910156 -3.316406 1.417969 -2.882812 2.023438 -2.519531 L 5.066406 -1.117188 C 5.480469 -0.972656 6.007812 -0.84375 6.613281 -0.71875 C 6.535156 -0.589844 7.332031 -0.460938 9.019531 -0.367188 L 9.035156 -0.382812 C 9.035156 -0.382812 9.035156 -0.398438 9.050781 -0.414062 C 10.390625 -0.351562 11.699219 -0.445312 12.957031 -0.71875 C 14.199219 -0.972656 15.265625 -1.417969 16.160156 -2.039062 C 17.5 -2.964844 18.4375 -4.113281 18.964844 -5.480469 C 19.472656 -6.835938 19.457031 -8.0625 18.949219 -9.148438 C 18.4375 -10.230469 17.53125 -11.1875 16.222656 -11.984375 C 16.175781 -12 16.128906 -12.03125 16.097656 -12.0625 Z M 14.453125 -13.195312 "/></g></g></g><g fill="#ffde59" fill-opacity="1"><g transform="translate(96.145368, 36.656071)"><g><path d="M 2.328125 -22.757812 C 1.945312 -22.566406 1.640625 -22.277344 1.417969 -21.878906 C 1.132812 -21.371094 0.890625 -20.683594 0.734375 -19.839844 C 0.542969 -18.882812 0.445312 -17.671875 0.445312 -16.175781 C 0.445312 -14.675781 0.511719 -13.132812 0.667969 -11.539062 C 0.8125 -9.945312 1.019531 -8.398438 1.308594 -6.902344 C 1.59375 -5.402344 1.929688 -4.175781 2.3125 -3.234375 C 2.503906 -2.726562 2.757812 -2.214844 3.074219 -1.707031 C 3.394531 -1.195312 3.824219 -0.828125 4.398438 -0.605469 C 5.164062 -0.285156 6.292969 -0.175781 7.808594 -0.269531 C 9.324219 -0.351562 10.550781 -0.429688 11.507812 -0.492188 C 13.066406 -0.558594 14.582031 -0.703125 16.046875 -0.890625 C 17.515625 -1.082031 18.726562 -1.324219 19.679688 -1.609375 C 20.320312 -1.800781 20.8125 -1.992188 21.179688 -2.183594 C 21.722656 -2.46875 22.105469 -2.804688 22.328125 -3.1875 C 22.710938 -3.839844 22.835938 -4.8125 22.742188 -6.121094 C 22.675781 -6.691406 22.550781 -7.1875 22.328125 -7.617188 C 22.105469 -8.03125 21.738281 -8.238281 21.242188 -8.207031 C 21.003906 -8.175781 20.734375 -8.128906 20.429688 -8.046875 C 20.285156 -8 20.144531 -7.953125 20.015625 -7.90625 C 19.886719 -7.839844 19.761719 -7.808594 19.632812 -7.777344 C 18.390625 -7.394531 17.050781 -7.074219 15.601562 -6.820312 C 14.152344 -6.566406 12.667969 -6.390625 11.171875 -6.277344 C 10.773438 -6.246094 10.421875 -6.214844 10.121094 -6.183594 C 9.816406 -6.152344 9.546875 -6.136719 9.308594 -6.136719 C 8.988281 -7.140625 8.75 -8.160156 8.558594 -9.179688 C 10.007812 -9.289062 11.457031 -9.480469 12.925781 -9.769531 C 14.375 -10.039062 15.28125 -10.421875 15.632812 -10.902344 C 15.921875 -11.28125 16.0625 -12.09375 16.0625 -13.339844 C 16.0625 -14.582031 15.585938 -15.203125 14.597656 -15.234375 C 14.105469 -15.234375 13.210938 -15.1875 11.921875 -15.058594 C 10.613281 -14.933594 9.257812 -14.773438 7.855469 -14.613281 C 7.761719 -15.824219 7.714844 -17.117188 7.746094 -18.453125 C 9.402344 -18.742188 11.027344 -18.917969 12.605469 -18.980469 C 14.167969 -19.042969 15.871094 -18.933594 17.707031 -18.644531 C 17.960938 -18.597656 18.230469 -18.550781 18.519531 -18.503906 C 18.804688 -18.4375 19.074219 -18.421875 19.363281 -18.453125 C 20.351562 -18.519531 20.734375 -19.28125 20.527344 -20.734375 C 20.320312 -22.183594 20.046875 -23.140625 19.699219 -23.585938 C 19.378906 -23.96875 18.949219 -24.238281 18.40625 -24.398438 C 17.863281 -24.558594 17.339844 -24.683594 16.84375 -24.765625 C 14.882812 -25.035156 12.667969 -25.003906 10.214844 -24.652344 C 7.761719 -24.304688 5.65625 -23.839844 3.921875 -23.265625 C 3.648438 -23.171875 3.378906 -23.074219 3.109375 -23.011719 C 2.820312 -22.949219 2.566406 -22.851562 2.328125 -22.757812 Z M 2.328125 -22.757812 "/></g></g></g><g fill="#ffde59" fill-opacity="1"><g transform="translate(120.17428, 36.656071)"><g><path d="M 1.226562 -14.199219 C 0.382812 -12.527344 0 -10.675781 0.078125 -8.652344 C 0.144531 -7.25 0.414062 -6.023438 0.925781 -4.988281 C 1.433594 -3.90625 2.183594 -3.011719 3.140625 -2.3125 C 4.09375 -1.609375 5.148438 -1.082031 6.261719 -0.703125 C 7.730469 -0.191406 9.242188 0 10.820312 -0.128906 C 12.382812 -0.285156 13.832031 -0.75 15.171875 -1.546875 C 16.511719 -2.328125 17.722656 -3.296875 18.773438 -4.445312 C 19.472656 -5.210938 20.144531 -6.070312 20.796875 -7.042969 C 21.449219 -8.015625 21.945312 -9.019531 22.296875 -10.039062 C 22.835938 -11.730469 23.027344 -13.625 22.867188 -15.730469 C 22.804688 -16.335938 22.691406 -16.941406 22.566406 -17.5625 C 22.4375 -18.167969 22.230469 -18.757812 21.945312 -19.300781 C 21.5 -20.128906 20.828125 -20.875 19.96875 -21.578125 C 19.089844 -22.261719 18.214844 -22.742188 17.324219 -22.996094 C 15.472656 -23.523438 13.546875 -23.523438 11.539062 -22.980469 C 9.195312 -22.34375 7.109375 -21.210938 5.289062 -19.585938 C 5.003906 -19.332031 4.703125 -19.042969 4.414062 -18.757812 C 3.730469 -18.085938 3.125 -17.355469 2.613281 -16.589844 C 2.105469 -15.824219 1.640625 -15.027344 1.226562 -14.199219 Z M 7.457031 -10.804688 C 7.457031 -11.855469 7.746094 -12.605469 8.320312 -13.019531 C 8.890625 -13.433594 9.5625 -13.609375 10.3125 -13.515625 C 11.058594 -13.417969 11.792969 -13.101562 12.511719 -12.558594 C 13.210938 -12.015625 13.707031 -11.347656 13.976562 -10.519531 C 14.199219 -9.785156 14.230469 -9.082031 14.070312 -8.414062 C 13.914062 -7.746094 13.449219 -7.21875 12.683594 -6.835938 C 11.507812 -6.230469 10.328125 -6.484375 9.179688 -7.601562 C 8.03125 -8.703125 7.457031 -9.769531 7.457031 -10.804688 Z M 7.457031 -10.804688 "/></g></g></g><g fill="#ffde59" fill-opacity="1"><g transform="translate(144.442211, 36.656071)"><g><path d="M 0.445312 -21.019531 C 0.222656 -20.765625 0.128906 -20.382812 0.160156 -19.886719 C 0.191406 -19.394531 0.222656 -19.027344 0.253906 -18.773438 C 0.285156 -17.816406 0.429688 -16.875 0.683594 -15.984375 C 0.8125 -15.457031 0.941406 -14.996094 1.066406 -14.613281 C 1.195312 -14.214844 1.546875 -13.898438 2.085938 -13.65625 C 2.691406 -13.371094 3.378906 -13.210938 4.113281 -13.179688 C 4.84375 -13.148438 5.546875 -13.117188 6.230469 -13.066406 C 6.582031 -13.035156 7.042969 -12.957031 7.617188 -12.859375 C 8.175781 -12.75 8.542969 -12.492188 8.703125 -12.078125 C 8.988281 -11.347656 9.195312 -10.644531 9.355469 -9.992188 C 9.671875 -8.667969 9.914062 -7.332031 10.070312 -5.992188 C 10.230469 -4.636719 10.519531 -3.316406 10.933594 -2.023438 C 11.042969 -1.609375 11.21875 -1.164062 11.441406 -0.667969 C 11.554688 -0.382812 11.777344 -0.191406 12.113281 -0.113281 C 12.429688 -0.03125 12.734375 0 13.019531 0 C 13.6875 0 14.4375 -0.078125 15.265625 -0.238281 C 16.097656 -0.398438 16.78125 -0.667969 17.355469 -1.082031 C 17.738281 -1.371094 17.945312 -1.832031 17.976562 -2.46875 C 18.007812 -3.648438 17.914062 -4.890625 17.722656 -6.214844 C 17.53125 -7.523438 17.371094 -8.78125 17.242188 -9.976562 C 17.179688 -10.550781 17.066406 -11.25 16.925781 -12.09375 C 16.765625 -12.941406 16.875 -13.59375 17.226562 -14.054688 C 17.5625 -14.503906 18.023438 -14.835938 18.628906 -15.089844 C 19.21875 -15.332031 19.761719 -15.554688 20.269531 -15.777344 C 20.636719 -15.9375 21.050781 -16.128906 21.53125 -16.351562 C 21.992188 -16.574219 22.328125 -16.875 22.519531 -17.273438 C 22.804688 -17.914062 22.835938 -18.917969 22.628906 -20.269531 C 22.40625 -21.609375 22.105469 -22.597656 21.6875 -23.203125 C 21.324219 -23.714844 20.765625 -23.9375 20.03125 -23.839844 C 19.378906 -23.746094 18.742188 -23.585938 18.105469 -23.363281 C 17.464844 -23.140625 16.84375 -22.964844 16.207031 -22.835938 C 14.261719 -22.4375 12.320312 -22.054688 10.375 -21.6875 C 8.414062 -21.308594 6.453125 -21.132812 4.476562 -21.132812 C 3.523438 -21.132812 2.613281 -21.179688 1.753906 -21.289062 C 1.117188 -21.371094 0.667969 -21.273438 0.445312 -21.019531 Z M 0.445312 -21.019531 "/></g></g></g><g fill="#ffde59" fill-opacity="1"><g transform="translate(168.53486, 36.656071)"><g><path d="M 1.308594 -9.273438 C 0.75 -8.160156 0.492188 -6.964844 0.558594 -5.65625 C 0.589844 -4.734375 0.78125 -3.9375 1.132812 -3.25 C 1.464844 -2.535156 1.945312 -1.945312 2.582031 -1.496094 C 3.21875 -1.050781 3.90625 -0.703125 4.667969 -0.445312 C 5.609375 -0.128906 6.613281 0 7.695312 -0.078125 C 8.71875 -0.175781 9.6875 -0.476562 10.582031 -1.003906 C 11.472656 -1.515625 12.269531 -2.152344 12.972656 -2.902344 C 13.433594 -3.394531 13.878906 -3.953125 14.328125 -4.589844 C 14.757812 -5.226562 15.089844 -5.878906 15.316406 -6.550781 C 15.679688 -7.648438 15.808594 -8.890625 15.699219 -10.277344 C 15.601562 -11.203125 15.410156 -11.984375 15.089844 -12.605469 C 14.789062 -13.148438 14.34375 -13.640625 13.769531 -14.085938 C 13.179688 -14.535156 12.589844 -14.851562 12.015625 -15.027344 C 10.773438 -15.363281 9.480469 -15.363281 8.175781 -15.011719 C 6.613281 -14.597656 5.226562 -13.863281 4.015625 -12.796875 C 3.921875 -12.71875 3.730469 -12.542969 3.425781 -12.253906 C 2.660156 -11.523438 1.945312 -10.519531 1.308594 -9.273438 Z M 5.449219 -7.058594 C 5.449219 -8.460938 6.085938 -9.050781 7.363281 -8.828125 C 8.636719 -8.605469 9.433594 -7.953125 9.785156 -6.867188 C 9.929688 -6.390625 9.945312 -5.929688 9.832031 -5.480469 C 9.722656 -5.035156 9.417969 -4.703125 8.925781 -4.460938 C 8.128906 -4.078125 7.363281 -4.238281 6.597656 -4.972656 C 5.832031 -5.6875 5.449219 -6.390625 5.449219 -7.058594 Z M 5.449219 -7.058594 "/></g></g></g><g fill="#ffde59" fill-opacity="1"><g transform="translate(185.170261, 36.656071)"><g><path d="M 1.308594 -9.273438 C 0.75 -8.160156 0.492188 -6.964844 0.558594 -5.65625 C 0.589844 -4.734375 0.78125 -3.9375 1.132812 -3.25 C 1.464844 -2.535156 1.945312 -1.945312 2.582031 -1.496094 C 3.21875 -1.050781 3.90625 -0.703125 4.667969 -0.445312 C 5.609375 -0.128906 6.613281 0 7.695312 -0.078125 C 8.71875 -0.175781 9.6875 -0.476562 10.582031 -1.003906 C 11.472656 -1.515625 12.269531 -2.152344 12.972656 -2.902344 C 13.433594 -3.394531 13.878906 -3.953125 14.328125 -4.589844 C 14.757812 -5.226562 15.089844 -5.878906 15.316406 -6.550781 C 15.679688 -7.648438 15.808594 -8.890625 15.699219 -10.277344 C 15.601562 -11.203125 15.410156 -11.984375 15.089844 -12.605469 C 14.789062 -13.148438 14.34375 -13.640625 13.769531 -14.085938 C 13.179688 -14.535156 12.589844 -14.851562 12.015625 -15.027344 C 10.773438 -15.363281 9.480469 -15.363281 8.175781 -15.011719 C 6.613281 -14.597656 5.226562 -13.863281 4.015625 -12.796875 C 3.921875 -12.71875 3.730469 -12.542969 3.425781 -12.253906 C 2.660156 -11.523438 1.945312 -10.519531 1.308594 -9.273438 Z M 5.449219 -7.058594 C 5.449219 -8.460938 6.085938 -9.050781 7.363281 -8.828125 C 8.636719 -8.605469 9.433594 -7.953125 9.785156 -6.867188 C 9.929688 -6.390625 9.945312 -5.929688 9.832031 -5.480469 C 9.722656 -5.035156 9.417969 -4.703125 8.925781 -4.460938 C 8.128906 -4.078125 7.363281 -4.238281 6.597656 -4.972656 C 5.832031 -5.6875 5.449219 -6.390625 5.449219 -7.058594 Z M 5.449219 -7.058594 "/></g></g></g><g fill="#ffde59" fill-opacity="1"><g transform="translate(201.805661, 36.656071)"><g><path d="M 6.742188 -20.382812 C 6.835938 -21.164062 6.742188 -21.6875 6.421875 -21.945312 C 6.105469 -22.199219 5.671875 -22.375 5.132812 -22.4375 C 4.75 -22.46875 4.320312 -22.484375 3.839844 -22.453125 C 3.363281 -22.421875 2.964844 -22.328125 2.613281 -22.167969 C 2.3125 -22.023438 2.054688 -21.753906 1.863281 -21.371094 C 1.609375 -20.910156 1.402344 -20.269531 1.242188 -19.441406 C 1.050781 -18.550781 0.910156 -17.371094 0.828125 -15.9375 C 0.734375 -14.503906 0.703125 -12.988281 0.734375 -11.425781 C 0.75 -9.863281 0.828125 -8.335938 0.957031 -6.867188 C 1.082031 -5.402344 1.257812 -4.191406 1.496094 -3.25 C 1.609375 -2.757812 1.769531 -2.246094 1.992188 -1.738281 C 2.199219 -1.210938 2.519531 -0.8125 2.949219 -0.558594 C 3.171875 -0.398438 3.554688 -0.269531 4.09375 -0.175781 C 4.636719 -0.0625 5.195312 -0.03125 5.753906 -0.0625 C 6.3125 -0.09375 6.804688 -0.207031 7.234375 -0.429688 C 7.648438 -0.636719 7.871094 -0.988281 7.871094 -1.480469 C 7.839844 -1.753906 7.792969 -2.023438 7.714844 -2.3125 C 7.617188 -2.582031 7.554688 -2.851562 7.507812 -3.109375 C 6.835938 -5.5625 6.46875 -8.382812 6.375 -11.585938 C 6.277344 -14.773438 6.390625 -17.707031 6.742188 -20.382812 Z M 6.742188 -20.382812 "/></g></g></g><g fill="#ffde59" fill-opacity="1"><g transform="translate(210.250836, 36.656071)"><g><path d="M 11.011719 -9.59375 C 10.023438 -10.136719 9.464844 -10.46875 9.355469 -10.582031 C 7.921875 -11.507812 7.695312 -12.128906 8.667969 -12.460938 C 9.148438 -12.460938 9.578125 -12.429688 9.992188 -12.398438 L 10.804688 -12.191406 C 11.28125 -12.09375 11.777344 -11.96875 12.285156 -11.839844 C 12.75 -11.730469 13.117188 -11.777344 13.371094 -11.96875 C 13.371094 -11.96875 13.402344 -11.984375 13.433594 -12.015625 C 13.722656 -12.269531 13.816406 -12.636719 13.707031 -13.082031 C 13.59375 -13.53125 13.433594 -13.878906 13.242188 -14.136719 C 13.210938 -14.167969 13.195312 -14.214844 13.164062 -14.246094 L 12.734375 -14.757812 C 12.429688 -14.882812 12.175781 -15.027344 11.96875 -15.15625 C 11.730469 -15.25 11.554688 -15.332031 11.457031 -15.394531 C 11.140625 -15.507812 10.789062 -15.632812 10.390625 -15.761719 C 7.109375 -16.078125 4.71875 -15.632812 3.21875 -14.40625 C 2.375 -13.707031 1.832031 -12.890625 1.578125 -11.96875 C 1.324219 -11.027344 1.496094 -10.085938 2.136719 -9.164062 C 2.390625 -8.765625 3.394531 -7.953125 5.148438 -6.742188 C 6.359375 -5.894531 7.027344 -5.417969 7.125 -5.308594 L 7.15625 -5.242188 C 7.15625 -5.210938 7.171875 -5.195312 7.1875 -5.195312 C 7.378906 -4.828125 7.316406 -4.542969 6.964844 -4.335938 C 6.835938 -4.269531 6.757812 -4.222656 6.710938 -4.207031 C 5.6875 -3.984375 4.621094 -4.160156 3.472656 -4.703125 C 2.964844 -4.957031 2.503906 -5.257812 2.121094 -5.609375 C 2.105469 -5.609375 2.085938 -5.625 2.070312 -5.640625 C 2.039062 -5.640625 2.023438 -5.65625 2.007812 -5.6875 C 1.847656 -5.816406 1.640625 -5.945312 1.417969 -6.054688 C 1.179688 -6.167969 1.003906 -6.070312 0.890625 -5.785156 C 0.765625 -5.515625 0.703125 -5.179688 0.683594 -4.765625 C 0.652344 -4.351562 0.636719 -4.015625 0.636719 -3.730469 L 0.636719 -3.632812 C 0.652344 -3.394531 0.75 -3.1875 0.910156 -2.996094 C 0.910156 -2.980469 0.925781 -2.964844 0.941406 -2.949219 C 0.941406 -2.933594 0.957031 -2.917969 0.988281 -2.917969 C 0.988281 -2.882812 0.988281 -2.867188 1.003906 -2.867188 C 1.003906 -2.851562 1.019531 -2.835938 1.050781 -2.835938 C 1.355469 -2.484375 1.722656 -2.167969 2.152344 -1.914062 L 4.320312 -0.910156 C 4.605469 -0.796875 4.972656 -0.703125 5.417969 -0.621094 C 5.371094 -0.527344 5.945312 -0.429688 7.140625 -0.367188 L 7.171875 -0.398438 C 8.128906 -0.351562 9.050781 -0.429688 9.945312 -0.621094 C 10.835938 -0.8125 11.585938 -1.117188 12.222656 -1.5625 C 13.179688 -2.230469 13.847656 -3.058594 14.230469 -4.046875 C 14.582031 -5.019531 14.582031 -5.894531 14.214844 -6.675781 C 13.847656 -7.457031 13.195312 -8.144531 12.269531 -8.71875 L 12.175781 -8.78125 Z M 11.011719 -9.59375 "/></g></g></g><g clip-path="url(#id4)"><path fill="#3d5369" d="M 18.738281 6.972656 C 26.222656 6.972656 32.285156 13.039062 32.285156 20.519531 C 32.285156 28 26.222656 34.0625 18.738281 34.0625 C 11.257812 34.0625 5.195312 28 5.195312 20.519531 C 5.195312 13.039062 11.257812 6.972656 18.738281 6.972656 " fill-opacity="1" fill-rule="nonzero"/></g><path fill="#ffffff" d="M 18.738281 9.421875 C 12.613281 9.421875 7.640625 14.394531 7.640625 20.519531 C 7.640625 26.644531 12.621094 31.617188 18.738281 31.617188 C 24.859375 31.617188 29.839844 26.636719 29.839844 20.519531 C 29.839844 14.402344 24.859375 9.421875 18.738281 9.421875 " fill-opacity="1" fill-rule="nonzero"/><path fill="#96ddf8" d="M 18.738281 11.859375 C 13.96875 11.859375 10.082031 15.738281 10.082031 20.519531 C 10.082031 25.296875 13.960938 29.175781 18.738281 29.175781 C 23.519531 29.175781 27.398438 25.289062 27.398438 20.519531 C 27.398438 15.746094 23.511719 11.859375 18.738281 11.859375 " fill-opacity="1" fill-rule="nonzero"/><path fill="#6bc7ef" d="M 18.738281 24.902344 C 16.320312 24.902344 14.355469 22.9375 14.355469 20.519531 C 14.355469 18.101562 16.320312 16.136719 18.738281 16.136719 C 21.160156 16.136719 23.125 18.101562 23.125 20.519531 C 23.125 22.9375 21.160156 24.902344 18.738281 24.902344 " fill-opacity="1" fill-rule="nonzero"/><path fill="#ffffff" d="M 14.945312 20.316406 C 14.082031 20.316406 13.386719 19.621094 13.386719 18.753906 C 13.386719 17.890625 14.082031 17.195312 14.945312 17.195312 C 15.8125 17.195312 16.507812 17.890625 16.507812 18.753906 C 16.507812 19.621094 15.804688 20.316406 14.945312 20.316406 " fill-opacity="1" fill-rule="nonzero"/><path fill="#ffffff" d="M 17.226562 20.699219 C 16.832031 20.699219 16.507812 20.375 16.507812 19.980469 C 16.507812 19.582031 16.832031 19.257812 17.226562 19.257812 C 17.625 19.257812 17.949219 19.582031 17.949219 19.980469 C 17.949219 20.375 17.625 20.699219 17.226562 20.699219 " fill-opacity="1" fill-rule="nonzero"/><g clip-path="url(#id5)"><path fill="#f2564e" d="M 40.664062 37.136719 L 34.53125 31.011719 C 33.070312 29.550781 30.695312 29.550781 29.234375 31.011719 C 27.773438 32.472656 27.773438 34.847656 29.234375 36.308594 L 35.367188 42.441406 C 36.828125 43.902344 39.203125 43.902344 40.664062 42.441406 C 42.125 40.972656 42.125 38.605469 40.664062 37.136719 " fill-opacity="1" fill-rule="nonzero"/></g><path fill="#f03e38" d="M 29.234375 31.011719 C 29.628906 30.617188 30.089844 30.335938 30.578125 30.148438 L 29.355469 28.925781 C 28.707031 29.746094 27.964844 30.488281 27.144531 31.136719 L 28.371094 32.359375 C 28.550781 31.867188 28.835938 31.402344 29.234375 31.011719 " fill-opacity="1" fill-rule="nonzero"/></svg>